{
  "accessors": [
    {
      "bufferView": 2,
      "componentType": 5126,
      "count": 164,
      "max": [
        0.18949699401855469,
        0.91762501001358032,
        3.7044010162353516
      ],
      "min": [
        -0.76864302158355713,
        -0.92347800731658936,
        2.5334289073944092
      ],
      "type": "VEC3"
    },
    {
      "bufferView": 2,
      "byteOffset": 1968,
      "componentType": 5126,
      "count": 164,
      "max": [
        0.92587482929229736,
        0.32181438803672791,
        0.73618209362030029
      ],
      "min": [
        0.62329363822937012,
        -0.28051134943962097,
        0.36710727214813232
      ],
      "type": "VEC3"
    },
    {
      "bufferView": 3,
      "componentType": 5126,
      "count": 164,
      "max": [
        0.24226441979408264,
        1,
        0.17272645235061646,
        1
      ],
      "min": [
        -0.27862197160720825,
        0.94678807258605957,
        -0.22435946762561798,
        1
      ],
      "type": "VEC4"
    },
    {
      "bufferView": 1,
      "componentType": 5126,
      "count": 164,
      "max": [
        1.1328120231628418,
        1.1205359697341919
      ],
      "min": [
        -0.171875,
        -0.14732100069522858
      ],
      "type": "VEC2"
    },
    {
      "bufferView": 0,
      "componentType": 5125,
      "count": 828,
      "max": [
        163
      ],
      "min": [
        0
      ],
      "type": "SCALAR"
    },
    {
      "bufferView": 2,
      "byteOffset": 3936,
      "componentType": 5126,
      "count": 4,
      "max": [
        -0.14276500046253204,
        1.0746079683303833,
        4.2943120002746582
      ],
      "min": [
        -0.31499201059341431,
        -1.0746079683303833,
        3.7883191108703613
      ],
      "type": "VEC3"
    },
    {
      "bufferView": 2,
      "byteOffset": 3984,
      "componentType": 5126,
      "count": 4,
      "max": [
        0.94667458534240723,
        -0,
        -0.32219135761260986
      ],
      "min": [
        0.94667458534240723,
        -0,
        -0.32219135761260986
      ],
      "type": "VEC3"
    },
    {
      "bufferView": 3,
      "byteOffset": 2624,
      "componentType": 5126,
      "count": 4,
      "max": [
        0,
        1,
        0,
        1
      ],
      "min": [
        0,
        1,
        0,
        1
      ],
      "type": "VEC4"
    },
    {
      "bufferView": 1,
      "byteOffset": 1312,
      "componentType": 5126,
      "count": 4,
      "max": [
        0.99500000476837158,
        0.93916398286819458
      ],
      "min": [
        0.004999999888241291,
        0.04562700167298317
      ],
      "type": "VEC2"
    },
    {
      "bufferView": 0,
      "byteOffset": 3312,
      "componentType": 5125,
      "count": 6,
      "max": [
        3
      ],
      "min": [
        0
      ],
      "type": "SCALAR"
    },
    {
      "bufferView": 2,
      "byteOffset": 4032,
      "componentType": 5126,
      "count": 2143,
      "max": [
        0.70837700366973877,
        -0.28717499971389771,
        2.9190490245819092
      ],
      "min": [
        0.54619902372360229,
        -0.44935199618339539,
        2.7568719387054443
      ],
      "type": "VEC3"
    },
    {
      "bufferView": 2,
      "byteOffset": 29748,
      "componentType": 5126,
      "count": 2143,
      "max": [
        1,
        1,
        1
      ],
      "min": [
        -1,
        -1,
        -1
      ],
      "type": "VEC3"
    },
    {
      "bufferView": 3,
      "byteOffset": 2688,
      "componentType": 5126,
      "count": 2143,
      "max": [
        1,
        1,
        0.024547381326556206,
        1
      ],
      "min": [
        -1,
        -1,
        -0.02452331967651844,
        1
      ],
      "type": "VEC4"
    },
    {
      "bufferView": 1,
      "byteOffset": 1344,
      "componentType": 5126,
      "count": 2143,
      "max": [
        1.0000009536743164,
        1
      ],
      "min": [
        0,
        0
      ],
      "type": "VEC2"
    },
    {
      "bufferView": 0,
      "byteOffset": 3336,
      "componentType": 5125,
      "count": 11904,
      "max": [
        2142
      ],
      "min": [
        0
      ],
      "type": "SCALAR"
    },
    {
      "bufferView": 2,
      "byteOffset": 55464,
      "componentType": 5126,
      "count": 98,
      "max": [
        0.6471329927444458,
        -0.3478890061378479,
        2.7607920169830322
      ],
      "min": [
        0.60665202140808105,
        -0.38837099075317383,
        2.6030158996582031
      ],
      "type": "VEC3"
    },
    {
      "bufferView": 2,
      "byteOffset": 56640,
      "componentType": 5126,
      "count": 98,
      "max": [
        1,
        1,
        0
      ],
      "min": [
        -1,
        -1,
        -0.68570315837860107
      ],
      "type": "VEC3"
    },
    {
      "bufferView": 3,
      "byteOffset": 36976,
      "componentType": 5126,
      "count": 98,
      "max": [
        1,
        1,
        0.72789037227630615,
        1
      ],
      "min": [
        -1,
        -1,
        -0.72789013385772705,
        -1
      ],
      "type": "VEC4"
    },
    {
      "bufferView": 1,
      "byteOffset": 18488,
      "componentType": 5126,
      "count": 98,
      "max": [
        1,
        0.94190198183059692
      ],
      "min": [
        0,
        0.0099999997764825821
      ],
      "type": "VEC2"
    },
    {
      "bufferView": 0,
      "byteOffset": 50952,
      "componentType": 5125,
      "count": 282,
      "max": [
        97
      ],
      "min": [
        0
      ],
      "type": "SCALAR"
    },
    {
      "bufferView": 2,
      "byteOffset": 57816,
      "componentType": 5126,
      "count": 104,
      "max": [
        1,
        1.0746079683303833,
        4.318213939666748
      ],
      "min": [
        -1.0834590196609497,
        -1.0746079683303833,
        -0
      ],
      "type": "VEC3"
    },
    {
      "bufferView": 2,
      "byteOffset": 59064,
      "componentType": 5126,
      "count": 104,
      "max": [
        1,
        1,
        0.99999785423278809
      ],
      "min": [
        -1,
        -1,
        -1
      ],
      "type": "VEC3"
    },
    {
      "bufferView": 3,
      "byteOffset": 38544,
      "componentType": 5126,
      "count": 104,
      "max": [
        1,
        1,
        1,
        1
      ],
      "min": [
        -1,
        -1,
        -1,
        -1
      ],
      "type": "VEC4"
    },
    {
      "bufferView": 1,
      "byteOffset": 19272,
      "componentType": 5126,
      "count": 104,
      "max": [
        0.99804699420928955,
        0.99773800373077393
      ],
      "min": [
        0.010742000304162502,
        -0.0015079999575391412
      ],
      "type": "VEC2"
    },
    {
      "bufferView": 0,
      "byteOffset": 52080,
      "componentType": 5125,
      "count": 192,
      "max": [
        103
      ],
      "min": [
        0
      ],
      "type": "SCALAR"
    },
    {
      "bufferView": 2,
      "byteOffset": 60312,
      "componentType": 5126,
      "count": 514,
      "max": [
        0.71687299013137817,
        -0.27785000205039978,
        2.630695104598999
      ],
      "min": [
        0.53766500949859619,
        -0.45705699920654297,
        2.6227140426635742
      ],
      "type": "VEC3"
    },
    {
      "bufferView": 2,
      "byteOffset": 66480,
      "componentType": 5126,
      "count": 514,
      "max": [
        0.96992450952529907,
        0.96992450952529907,
        1
      ],
      "min": [
        -0.96992450952529907,
        -0.96992450952529907,
        -1
      ],
      "type": "VEC3"
    },
    {
      "bufferView": 3,
      "byteOffset": 40208,
      "componentType": 5126,
      "count": 514,
      "max": [
        1,
        0.99971193075180054,
        0.0490456223487854,
        1
      ],
      "min": [
        -0.99772840738296509,
        -0.99971318244934082,
        -0.0490456223487854,
        -1
      ],
      "type": "VEC4"
    },
    {
      "bufferView": 1,
      "byteOffset": 20104,
      "componentType": 5126,
      "count": 514,
      "max": [
        1,
        1
      ],
      "min": [
        0,
        0
      ],
      "type": "VEC2"
    },
    {
      "bufferView": 0,
      "byteOffset": 52848,
      "componentType": 5125,
      "count": 1920,
      "max": [
        513
      ],
      "min": [
        0
      ],
      "type": "SCALAR"
    }
  ],
  "asset": {
    "extras": {
      "author": "risenshine092 (https://sketchfab.com/risenshine092)",
      "license": "CC-BY-4.0 (http://creativecommons.org/licenses/by/4.0/)",
      "source": "https://sketchfab.com/3d-models/galaga-arcade-machine-ver-1-2f6c4ab34ec94f379e8b67e6e1523dbd",
      "title": "Galaga Arcade Machine Ver. 1"
    },
    "generator": "Sketchfab-6.49.1",
    "version": "2.0"
  },
  "bufferViews": [
    {
      "buffer": 0,
      "byteLength": 60528,
      "byteOffset": 0,
      "name": "floatBufferViews",
      "target": 34963
    },
    {
      "buffer": 0,
      "byteLength": 24216,
      "byteOffset": 60528,
      "byteStride": 8,
      "name": "floatBufferViews",
      "target": 34962
    },
    {
      "buffer": 0,
      "byteLength": 72648,
      "byteOffset": 84744,
      "byteStride": 12,
      "name": "floatBufferViews",
      "target": 34962
    },
    {
      "buffer": 0,
      "byteLength": 48432,
      "byteOffset": 157392,
      "byteStride": 16,
      "name": "floatBufferViews",
      "target": 34962
    }
  ],
  "buffers": [
    {
      "byteLength": 205824,
      "uri": "scene.bin"
    }
  ],
  "images": [
    {
      "uri": "textures/Material.001_emissive.png"
    },
    {
      "uri": "textures/Material.002_baseColor.jpeg"
    },
    {
      "uri": "textures/Material.002_emissive.jpeg"
    },
    {
      "uri": "textures/galaga_baseColor.jpeg"
    }
  ],
  "materials": [
    {
      "doubleSided": true,
      "emissiveFactor": [
        1,
        1,
        1
      ],
      "emissiveTexture": {
        "index": 0,
        "texCoord": 0
      },
      "name": "Material.001",
      "pbrMetallicRoughness": {
        "baseColorFactor": [
          0,
          0,
          0,
          1
        ],
        "metallicFactor": 0,
        "roughnessFactor": 0
      }
    },
    {
      "doubleSided": true,
      "emissiveFactor": [
        1,
        1,
        1
      ],
      "emissiveTexture": {
        "index": 2,
        "texCoord": 0
      },
      "name": "Material.002",
      "pbrMetallicRoughness": {
        "baseColorFactor": [
          1,
          1,
          1,
          1
        ],
        "baseColorTexture": {
          "index": 1,
          "texCoord": 0
        },
        "metallicFactor": 0,
        "roughnessFactor": 0.78803183755802242
      }
    },
    {
      "doubleSided": true,
      "emissiveFactor": [
        0,
        0,
        0
      ],
      "name": "Material.003",
      "pbrMetallicRoughness": {
        "baseColorFactor": [
          0.5,
          0,
          0,
          1
        ],
        "metallicFactor": 0,
        "roughnessFactor": 0
      }
    },
    {
      "doubleSided": true,
      "emissiveFactor": [
        0,
        0,
        0
      ],
      "name": "Material.004",
      "pbrMetallicRoughness": {
        "baseColorFactor": [
          0.0058753187397947984,
          0.0058753187397947984,
          0.0058753187397947984,
          1
        ],
        "metallicFactor": 0,
        "roughnessFactor": 0
      }
    },
    {
      "doubleSided": true,
      "emissiveFactor": [
        0,
        0,
        0
      ],
      "name": "Material.006",
      "pbrMetallicRoughness": {
        "baseColorFactor": [
          0.019708368943048015,
          0.019708368943048015,
          0.019708368943048015,
          1
        ],
        "metallicFactor": 0,
        "roughnessFactor": 0.84999999999999998
      }
    },
    {
      "doubleSided": true,
      "emissiveFactor": [
        0,
        0,
        0
      ],
      "name": "galaga",
      "pbrMetallicRoughness": {
        "baseColorFactor": [
          1,
          1,
          1,
          1
        ],
        "baseColorTexture": {
          "index": 3,
          "texCoord": 0
        },
        "metallicFactor": 0,
        "roughnessFactor": 0.78803183755802242
      }
    }
  ],
  "meshes": [
    {
      "primitives": [
        {
          "attributes": {
            "NORMAL": 1,
            "POSITION": 0,
            "TANGENT": 2,
            "TEXCOORD_0": 3
          },
          "indices": 4,
          "material": 0,
          "mode": 4
        }
      ]
    },
    {
      "primitives": [
        {
          "attributes": {
            "NORMAL": 6,
            "POSITION": 5,
            "TANGENT": 7,
            "TEXCOORD_0": 8
          },
          "indices": 9,
          "material": 1,
          "mode": 4
        }
      ]
    },
    {
      "primitives": [
        {
          "attributes": {
            "NORMAL": 11,
            "POSITION": 10,
            "TANGENT": 12,
            "TEXCOORD_0": 13
          },
          "indices": 14,
          "material": 2,
          "mode": 4
        }
      ]
    },
    {
      "primitives": [
        {
          "attributes": {
            "NORMAL": 16,
            "POSITION": 15,
            "TANGENT": 17,
            "TEXCOORD_0": 18
          },
          "indices": 19,
          "material": 3,
          "mode": 4
        }
      ]
    },
    {
      "primitives": [
        {
          "attributes": {
            "NORMAL": 21,
            "POSITION": 20,
            "TANGENT": 22,
            "TEXCOORD_0": 23
          },
          "indices": 24,
          "material": 5,
          "mode": 4
        }
      ]
    },
    {
      "primitives": [
        {
          "attributes": {
            "NORMAL": 26,
            "POSITION": 25,
            "TANGENT": 27,
            "TEXCOORD_0": 28
          },
          "indices": 29,
          "material": 4,
          "mode": 4
        }
      ]
    }
  ],
  "nodes": [
    {
      "children": [
        1
      ],
      "name": "RootNode (gltf orientation matrix)",
      "rotation": [
        -0.70710678118654746,
        -0,
        -0,
        0.70710678118654757
      ]
    },
    {
      "children": [
        2
      ],
      "name": "RootNode (model correction matrix)"
    },
    {
      "children": [
        3,
        4,
        5,
        6,
        7,
        8
      ],
      "name": "arcade_cabinet.obj.cleaner.materialmerger.gles"
    },
    {
      "mesh": 0,
      "name": ""
    },
    {
      "mesh": 1,
      "name": ""
    },
    {
      "mesh": 2,
      "name": ""
    },
    {
      "mesh": 3,
      "name": ""
    },
    {
      "mesh": 4,
      "name": ""
    },
    {
      "mesh": 5,
      "name": ""
    }
  ],
  "samplers": [
    {
      "magFilter": 9729,
      "minFilter": 9987,
      "wrapS": 10497,
      "wrapT": 10497
    }
  ],
  "scene": 0,
  "scenes": [
    {
      "name": "OSG_Scene",
      "nodes": [
        0
      ]
    }
  ],
  "textures": [
    {
      "sampler": 0,
      "source": 0
    },
    {
      "sampler": 0,
      "source": 1
    },
    {
      "sampler": 0,
      "source": 2
    },
    {
      "sampler": 0,
      "source": 3
    }
  ]
}

